<mxfile host="app.diagrams.net" modified="2024-03-19T13:57:38.781Z" agent="Mozilla/5.0 (Macintosh; Intel Mac OS X 10_15_7) AppleWebKit/537.36 (KHTML, like Gecko) Chrome/122.0.0.0 Safari/537.36" version="24.0.7" etag="6Uog9NAwX8XwJnDAhsjX" type="github">
  <diagram name="第 1 页" id="tH_8HGzw4OfnoxTTr08K">
    <mxGraphModel>
      <root>
        <mxCell id="0" />
        <mxCell id="1" parent="0" />
      </root>
    </mxGraphModel>
  </diagram>
</mxfile>
